#!OML:ASF F:\VICON\USERDATA\INSTALL\rory3\rory3.ASF
:FULLY-SPECIFIED
:DEGREES
459
root 2.52641 9.67959 -5.52045 -17.2575 -4.80268 1.40394
lowerback 28.9972 -0.15281 0.466169
upperback 12.147 -0.0829237 0.943898
thorax -2.33536 -0.0781171 0.792806
lowerneck -24.6467 -0.0823653 -9.51087
upperneck 10.5165 2.57495 2.46907
head 7.02355 1.06726 2.65324
rclavicle 2.98177e-015 -4.37326e-015
rhumerus -11.3611 21.0433 -84.7544
rradius 91.2555
rwrist 34.4916
rhand -31.8741 12.2616
rfingers 7.12502
rthumb -5.1272 -17.6563
lclavicle 2.98177e-015 -4.37326e-015
lhumerus -9.97747 -12.9207 89.8761
lradius 84.57
lwrist -22.2126
lhand -28.8316 17.8906
lfingers 7.12502
lthumb -2.1891 47.8591
rfemur -78.4803 -9.72832 22.1965
rtibia 107.219
rfoot -5.96793 1.94002
rtoes 8.38722
lfemur -78.4457 13.5925 -24.5323
ltibia 102.88
lfoot -5.91013 -11.9267
ltoes -4.40736
460
root 2.53057 9.68064 -5.5172 -17.2763 -4.85689 1.34345
lowerback 28.9454 -0.171545 0.571493
upperback 12.1983 -0.0791435 0.987652
thorax -2.2538 -0.0743094 0.778837
lowerneck -24.6879 -0.210247 -9.56915
upperneck 10.5504 2.43881 2.40313
head 7.05033 0.991555 2.62452
rclavicle 7.15625e-015 -4.37326e-015
rhumerus -11.3024 21.0753 -84.6194
rradius 91.2841
rwrist 34.4381
rhand -31.9619 12.1272
rfingers 7.12502
rthumb -5.2119 -17.7887
lclavicle 7.15625e-015 -4.37326e-015
lhumerus -9.91655 -12.9258 89.8783
lradius 84.5754
lwrist -22.1294
lhand -28.6065 17.9395
lfingers 7.12502
lthumb -1.97166 47.9102
rfemur -78.4523 -9.74337 22.2635
rtibia 107.214
rfoot -5.9264 1.95906
rtoes 8.70845
lfemur -78.4169 13.6068 -24.4648
ltibia 102.924
lfoot -5.93375 -11.893
ltoes -4.40968
461
root 2.53203 9.67887 -5.51603 -17.2734 -4.85293 1.19987
lowerback 28.9344 -0.21082 0.73257
upperback 12.2355 -0.0857166 1.03395
thorax -2.20658 -0.0733959 0.739011
lowerneck -24.6997 -0.315179 -9.53666
upperneck 10.551 2.30198 2.32586
head 7.06247 0.919404 2.5768
rclavicle -2.38542e-015 -7.55382e-015
rhumerus -11.2093 21.0678 -84.5295
rradius 91.2925
rwrist 34.3782
rhand -31.9328 11.8704
rfingers 7.12502
rthumb -5.18387 -18.0462
lclavicle -2.38542e-015 -7.55382e-015
lhumerus -10.0103 -12.9459 89.886
lradius 84.774
lwrist -22.5127
lhand -28.617 18.311
lfingers 7.12502
lthumb -1.98186 48.2816
rfemur -78.441 -9.7963 22.4195
rtibia 107.201
rfoot -5.92426 1.92955
rtoes 8.62769
lfemur -78.4813 13.5832 -24.3247
ltibia 102.956
lfoot -5.86538 -11.9468
ltoes -4.28087
462
root 2.53134 9.67326 -5.51601 -17.2003 -4.8043 1.13715
lowerback 28.8732 -0.233492 0.764343
upperback 12.2062 -0.103534 1.08101
thorax -2.21147 -0.0822969 0.777341
lowerneck -24.5192 -0.394476 -9.56718
upperneck 10.489 2.19077 2.29227
head 7.02093 0.863073 2.55394
rclavicle 1.09332e-014 -3.18055e-015
rhumerus -11.2091 21.0778 -84.5026
rradius 91.2595
rwrist 34.2582
rhand -32.0094 11.8417
rfingers 7.12502
rthumb -5.25784 -18.073
lclavicle 1.09332e-014 -3.18055e-015
lhumerus -10.3357 -12.8985 89.9537
lradius 85.0752
lwrist -23.3322
lhand -28.899 18.7769
lfingers 7.12502
lthumb -2.25419 48.7447
rfemur -78.5766 -9.87863 22.5169
rtibia 107.199
rfoot -5.87499 1.87586
rtoes 8.1751
lfemur -78.6307 13.5476 -24.3027
ltibia 102.956
lfoot -5.78118 -11.9928
ltoes -4.34527
463
root 2.53419 9.68122 -5.52129 -17.2806 -4.85636 1.09653
lowerback 28.9725 -0.237884 0.849951
upperback 12.183 -0.0842259 1.10721
thorax -2.28285 -0.070767 0.751921
lowerneck -24.2512 -0.476048 -9.67706
upperneck 10.382 2.0793 2.33302
head 6.94905 0.812028 2.56713
rclavicle 1.47101e-014 -1.27222e-014
rhumerus -11.256 21.0492 -84.4705
rradius 91.2193
rwrist 34.0332
rhand -32.1903 12.0016
rfingers 7.12502
rthumb -5.43251 -17.9088
lclavicle 1.47101e-014 -1.27222e-014
lhumerus -10.6723 -12.7996 90.0279
lradius 85.4451
lwrist -23.5266
lhand -28.7492 18.8652
lfingers 7.12502
lthumb -2.1095 48.8345
rfemur -78.434 -9.91696 22.5894
rtibia 107.096
rfoot -5.81487 1.92294
rtoes 7.83339
lfemur -78.4692 13.5893 -24.2317
ltibia 102.886
lfoot -5.82362 -11.9426
ltoes -4.55077
464
root 2.54016 9.70131 -5.53308 -17.5058 -4.92274 1.01749
lowerback 29.2762 -0.26946 1.01908
upperback 12.1599 -0.0747424 1.12559
thorax -2.44626 -0.0614459 0.674113
lowerneck -23.8881 -0.537625 -9.74361
upperneck 10.2196 1.97805 2.31659
head 6.84467 0.763622 2.55429
rclavicle 1.64991e-014 -2.38542e-015
rhumerus -11.3279 21.023 -84.4481
rradius 91.1852
rwrist 33.6945
rhand -32.1321 12.1604
rfingers 7.12502
rthumb -5.37624 -17.7514
lclavicle 1.64991e-014 -2.38542e-015
lhumerus -10.9386 -12.6788 90.0609
lradius 85.7894
lwrist -23.0909
lhand -28.231 18.3996
lfingers 7.12502
lthumb -1.60898 48.3733
rfemur -78.0085 -9.95405 22.6477
rtibia 106.908
rfoot -5.80407 1.96204
rtoes 7.96358
lfemur -78.0725 13.6399 -24.0909
ltibia 102.734
lfoot -5.83797 -11.9281
ltoes -4.5779
465
root 2.5473 9.71945 -5.53831 -17.7208 -4.99705 1.23699
lowerback 29.3096 -0.23779 0.881989
upperback 12.2645 -0.0764994 1.06747
thorax -2.34352 -0.0656632 0.689465
lowerneck -23.6929 -0.578981 -9.83186
upperneck 10.0406 1.92248 2.33771
head 6.75746 0.740735 2.56436
rclavicle -2.06736e-014 -6.36111e-015
rhumerus -11.2232 21.0104 -84.3731
rradius 91.1651
rwrist 33.4814
rhand -32.0124 12.1925
rfingers 7.12502
rthumb -5.26074 -17.7222
lclavicle -2.06736e-014 -6.36111e-015
lhumerus -10.9484 -12.5901 89.9914
lradius 85.9075
lwrist -22.8307
lhand -28.0127 18.0853
lfingers 7.12502
lthumb -1.3982 48.0604
rfemur -77.6755 -9.96352 22.3721
rtibia 106.793
rfoot -5.80291 2.11491
rtoes 8.24665
lfemur -77.6542 13.722 -24.2572
ltibia 102.575
lfoot -5.88864 -11.8914
ltoes -4.62848
